:SAMPLES-PER-SECOND 30
:FULLY-SPECIFIED
:DEGREES
244
root  31.3736 38.7734 -3.85277 -5.21173 34.3174 3.586
RightUpLeg  -2.61361 1.19864 -24.9746
RightLeg  37.2379 -1.81025 -1.7529
RightFoot  -3.72377 -0.448268 6.31294
RightToes  0.00048216 0.542163 -0.142577
Spine  21.7128 1.19141 -6.29913
Spine1  13.4114 -3.19837 9.24363
HEad  16.3573 -46.2681 6.0651
LeftShoulder1  8.91201 -13.8045 -44.8648
LeftArm  -5.18562 35.1265 -27.7531
LeftForeArm  20.8989 -26.355 -4.54243
LeftHand  -0.25398 0.0180481 5.50724
RightShoulder  5.11058 8.41015 36.8899
RightArm  -7.82958 10.8531 27.3699
RightForeArm  -10.4371 36.8248 8.99406
RightHand  -1.20951 1.94649 -19.2027
LeftUpLeg  -10.9355 27.6082 4.32165
LeftLeg  23.3679 10.0773 5.08273
LeftFoot  -0.358712 0.0448586 -0.451251
LeftToes  1.06243e-005 4.65856e-005 -8.18505e-006
245
root  29.8899 38.3678 -3.89469 -5.25047 34.1644 4.34472
RightUpLeg  1.24081 5.50296 -26.4672
RightLeg  34.5584 1.59285 0.926418
RightFoot  -3.65596 -0.581161 8.26837
RightToes  0.00048216 0.542163 -0.142577
Spine  20.8755 1.55392 -6.1228
Spine1  13.4004 -2.52085 8.39857
HEad  16.4119 -46.4198 5.75657
LeftShoulder1  8.85808 -13.7256 -44.7944
LeftArm  -5.46345 35.5613 -26.9072
LeftForeArm  20.1214 -26.6672 -4.65336
LeftHand  -0.25398 0.0180481 5.50724
RightShoulder  5.07387 8.39055 36.6591
RightArm  -6.66953 13.4017 29.2691
RightForeArm  -8.16358 38.8789 9.51794
RightHand  -1.04294 1.35107 -18.0279
LeftUpLeg  -12.6705 26.7288 5.1446
LeftLeg  24.4904 10.3175 5.43497
LeftFoot  1.09931 0.0453947 -0.482539
LeftToes  1.06243e-005 4.65856e-005 -8.18505e-006
246
root  28.25 37.9549 -3.8876 -5.16253 33.9607 4.95009
RightUpLeg  4.55182 8.04844 -26.9056
RightLeg  31.9773 4.91031 3.06884
RightFoot  -5.87897 -0.687563 13.9394
RightToes  0.00048216 0.542163 -0.142577
Spine  19.9118 1.9916 -6.18376
Spine1  13.6831 -1.87424 7.65833
HEad  16.2772 -46.3255 5.73368
LeftShoulder1  8.72772 -13.5996 -44.4448
LeftArm  -7.01383 35.8571 -26.4863
LeftForeArm  18.9808 -27.4495 -4.89037
LeftHand  -0.25398 0.0180481 5.50724
RightShoulder  5.12414 8.49853 36.6927
RightArm  -4.03478 15.9983 31.2112
RightForeArm  -6.45326 40.3307 9.8996
RightHand  -0.94365 0.994396 -17.2195
LeftUpLeg  -14.2868 26.6932 6.32375
LeftLeg  24.6756 9.99386 5.32064
LeftFoot  2.96974 0.0585532 -0.5993
LeftToes  1.06243e-005 4.65856e-005 -8.18505e-006
247
root  26.4991 37.6628 -3.89465 -5.32095 33.914 4.91933
RightUpLeg  7.15324 6.95265 -26.2658
RightLeg  29.0201 6.50654 3.67716
RightFoot  -10.9988 -0.13731 19.143
RightToes  0.00048216 0.542163 -0.142577
Spine  19.2372 2.07164 -5.47787
Spine1  14.0689 -1.35975 6.83778
HEad  15.7634 -45.7568 6.0717
LeftShoulder1  8.59124 -13.4394 -44.1501
LeftArm  -9.3497 35.7843 -25.9679
LeftForeArm  17.8239 -28.6712 -5.23357
LeftHand  -0.25398 0.0180481 5.50724
RightShoulder  5.2704 8.74319 37.0239
RightArm  -0.133641 19.1643 33.4675
RightForeArm  -4.42242 40.2283 9.74584
RightHand  -0.915876 1.07749 -16.5137
LeftUpLeg  -15.3624 26.9558 8.04479
LeftLeg  23.4299 9.76324 4.98334
LeftFoot  4.85549 0.151576 -1.27392
LeftToes  1.06243e-005 4.65856e-005 -8.18505e-006
248
root  24.6967 37.6009 -3.97873 -5.92523 34.271 3.91837
RightUpLeg  8.59053 2.74224 -24.3323
RightLeg  26.1161 6.92231 3.46637
RightFoot  -16.7533 0.786069 19.3312
RightToes  0.00048216 0.542163 -0.142577
Spine  19.1963 1.44422 -3.11348
Spine1  14.3157 -1.0331 5.43042
HEad  14.7874 -44.5955 6.6551
LeftShoulder1  8.53741 -13.3049 -44.2278
LeftArm  -12.0658 35.0483 -25.1556
LeftForeArm  17.7892 -30.1474 -5.58289
LeftHand  -0.25398 0.0180481 5.50724
RightShoulder  5.45586 9.0439 37.4571
RightArm  4.81181 22.9721 36.2119
RightForeArm  -1.51948 38.0955 8.88556
RightHand  -0.875934 1.23545 -15.4472
LeftUpLeg  -15.64 25.8842 10.4179
LeftLeg  20.4797 10.2417 4.32139
LeftFoot  4.63031 0.235533 -1.87955
LeftToes  1.06243e-005 4.65856e-005 -8.18505e-006
249
root  22.8956 37.7927 -4.1192 -6.48623 34.7913 2.38635
RightUpLeg  8.13343 -1.27826 -21.0719
RightLeg  24.5292 6.52225 3.02703
RightFoot  -19.9346 1.01904 15.2024
RightToes  0.00048216 0.542163 -0.142577
Spine  19.2035 0.450201 -0.0215706
Spine1  14.4814 -0.903139 3.7896
HEad  14.1575 -42.8257 6.8692
LeftShoulder1  8.51843 -13.1747 -44.4859
LeftArm  -14.9637 33.8118 -24.925
LeftForeArm  19.6374 -31.4142 -5.78437
LeftHand  -0.25398 0.0180481 5.50724
RightShoulder  5.60449 9.3121 37.6989
RightArm  11.2148 26.8027 39.1432
RightForeArm  1.14665 34.1265 7.56609
RightHand  -0.819607 1.36123 -14.2233
LeftUpLeg  -14.6893 21.0927 13.7347
LeftLeg  15.3305 14.0217 2.70205
LeftFoot  1.58146 0.232169 -2.14704
LeftToes  1.06243e-005 4.65856e-005 -8.18505e-006
250
root  21.1862 38.141 -4.24374 -6.35652 35.237 1.24851
RightUpLeg  5.93607 -2.57608 -17.2561
RightLeg  24.5825 4.86269 2.20337
RightFoot  -20.0888 0.737513 11.3503
RightToes  0.00048216 0.542163 -0.142577
Spine  18.523 -0.228046 1.78293
Spine1  14.5441 -1.07991 3.23939
HEad  14.8662 -40.6075 6.24881
LeftShoulder1  8.45076 -13.0128 -44.568
LeftArm  -17.1892 32.6599 -25.9342
LeftForeArm  22.9134 -32.1076 -5.76776
LeftHand  -0.25398 0.0180481 5.50724
RightShoulder  5.6756 9.52117 37.5483
RightArm  19.6369 29.6892 41.7925
RightForeArm  2.04997 29.2098 6.23069
RightHand  -0.738443 1.28715 -12.9664
LeftUpLeg  -12.8027 14.9905 16.7801
LeftLeg  8.31805 20.782 0.104883
LeftFoot  -1.5386 0.265627 -2.99269
LeftToes  1.06243e-005 4.65856e-005 -8.18505e-006
251
root  19.6405 38.5362 -4.3346 -5.57551 36.1039 1.07127
RightUpLeg  3.54442 -2.63394 -14.3448
RightLeg  24.9796 2.82691 1.2181
RightFoot  -18.9142 0.510294 9.64312
RightToes  0.00048216 0.542163 -0.142577
Spine  17.4823 -0.512169 1.381
Spine1  14.314 -1.75437 4.27724
HEad  16.5324 -38.4411 5.37527
LeftShoulder1  8.39174 -12.9369 -44.4561
LeftArm  -17.3813 31.8556 -27.3791
LeftForeArm  26.5055 -32.3567 -5.6242
LeftHand  -0.25398 0.0180481 5.50724
RightShoulder  5.6817 9.69227 37.0462
RightArm  28.7575 30.7559 43.7406
RightForeArm  1.65653 24.9302 5.26947
RightHand  -0.558519 0.442592 -11.1308
LeftUpLeg  -11.3655 13.8831 17.2661
LeftLeg  3.10109 24.8495 -2.28485
LeftFoot  -2.28146 0.360184 -4.35061
LeftToes  1.06243e-005 4.65856e-005 -8.18505e-006
252
root  18.2728 38.9475 -4.44673 -4.76637 38.0256 1.56616
RightUpLeg  2.4163 -4.13192 -12.8111
RightLeg  24.195 1.57806 0.555092
RightFoot  -17.389 0.324825 8.34843
RightToes  0.00048216 0.542163 -0.142577
Spine  16.914 -0.927071 0.117752
Spine1  13.7474 -2.79416 5.75044
HEad  17.5918 -37.003 5.27741
LeftShoulder1  8.44511 -13.0967 -44.3016
LeftArm  -15.3309 31.0396 -28.004
LeftForeArm  29.738 -32.6376 -5.51018
LeftHand  -0.25398 0.0180481 5.50724
RightShoulder  5.66781 9.8202 36.5429
RightArm  34.2492 29.5251 44.3673
RightForeArm  2.37643 22.5488 4.91058
RightHand  -0.338997 -1.04437 -8.92071
LeftUpLeg  -11.2886 14.8686 15.8192
LeftLeg  4.33141 26.1668 -2.67805
LeftFoot  -1.65564 0.453708 -5.23852
LeftToes  1.06243e-005 4.65856e-005 -8.18505e-006
253
root  17.0778 39.3381 -4.60754 -4.1864 40.5986 2.09074
RightUpLeg  2.31145 -7.26317 -12.0503
RightLeg  22.3185 1.43802 0.420407
RightFoot  -15.6395 0.138679 6.50696
RightToes  0.00048216 0.542163 -0.142577
Spine  16.774 -1.55929 -0.104819
Spine1  12.9956 -3.60714 6.41891
HEad  17.1389 -36.5774 6.01037
LeftShoulder1  8.57685 -13.4127 -44.1452
LeftArm  -12.7645 29.8277 -27.7747
LeftForeArm  32.2789 -33.0902 -5.47833
LeftHand  -0.25398 0.0180481 5.50724
RightShoulder  5.66954 9.8541 36.4506
RightArm  33.4625 25.9883 43.1541
RightForeArm  4.24697 22.1245 4.95607
RightHand  -0.244374 -1.98804 -8.00158
LeftUpLeg  -12.4396 19.5001 12.074
LeftLeg  10.6912 19.2817 0.297369
LeftFoot  -1.38085 0.481417 -5.42854
LeftToes  1.06243e-005 4.65856e-005 -8.18505e-006
254
root  16.0304 39.656 -4.79093 -3.48743 42.6201 2.39647
RightUpLeg  1.94189 -10.4284 -11.461
RightLeg  20.4429 2.10393 0.681375
RightFoot  -13.9398 0.0213013 5.1628
RightToes  0.00048216 0.542163 -0.142577
Spine  16.3551 -1.90801 0.884681
Spine1  12.1549 -3.69274 6.36222
HEad  15.7508 -36.7958 6.61844
LeftShoulder1  8.67199 -13.6307 -44.0629
LeftArm  -11.5942 28.4588 -27.6169
LeftForeArm  33.4163 -33.429 -5.49796
LeftHand  -0.25398 0.0180481 5.50724
RightShoulder  5.69452 9.80065 36.7992
RightArm  29.7399 20.5768 40.3933
RightForeArm  3.58342 22.9598 4.85256
RightHand  -0.319458 -1.54586 -9.3031
LeftUpLeg  -13.4761 23.6603 7.67281
LeftLeg  17.3985 9.15311 3.61212
LeftFoot  -2.27633 0.427035 -5.20706
LeftToes  1.06243e-005 4.65856e-005 -8.18505e-006
255
root  15.0675 39.9115 -4.97854 -2.33763 43.4525 2.74283
RightUpLeg  0.735 -12.3322 -10.8508
RightLeg  18.8535 2.77356 1.18245
RightFoot  -12.4865 -0.0374819 4.78101
RightToes  0.00048216 0.542163 -0.142577
Spine  15.5347 -1.67892 1.8608
Spine1  11.2886 -3.13313 6.1113
HEad  14.4029 -37.0031 6.49614
LeftShoulder1  8.67809 -13.5942 -44.1949
LeftArm  -12.0722 27.5883 -27.9358
LeftForeArm  32.8388 -33.8172 -5.62665
LeftHand  -0.25398 0.0180481 5.50724
RightShoulder  5.74244 9.76179 37.2706
RightArm  25.7758 14.3585 36.9407
RightForeArm  0.644966 23.7522 5.02548
RightHand  -0.51586 -0.204249 -11.5382
LeftUpLeg  -12.7758 19.139 5.97047
LeftLeg  23.4187 8.9264 4.58124
LeftFoot  -3.77031 0.365087 -5.1856
LeftToes  1.06243e-005 4.65856e-005 -8.18505e-006
256
root  14.1702 40.0976 -5.18779 -1.21297 43.4937 2.93748
RightUpLeg  -0.896525 -13.1177 -10.0863
RightLeg  17.4966 3.08409 1.85921
RightFoot  -11.176 -0.082007 4.49756
RightToes  0.00048216 0.542163 -0.142577
Spine  14.6001 -1.26002 2.63707
Spine1  10.6405 -2.44641 5.80941
HEad  13.3386 -36.6327 6.0098
LeftShoulder1  8.6087 -13.3545 -44.4776
LeftArm  -13.2332 27.4954 -28.3753
LeftForeArm  31.4339 -34.8099 -5.95841
LeftHand  -0.25398 0.0180481 5.50724
RightShoulder  5.7839 9.76196 37.5727
RightArm  23.1966 8.56922 33.822
RightForeArm  -2.86333 23.3891 5.18904
RightHand  -0.680066 0.739102 -12.99
LeftUpLeg  -11.4056 17.1953 4.04839
LeftLeg  28.2219 9.11643 5.60517
LeftFoot  -5.04732 0.351771 -5.84803
LeftToes  1.06243e-005 4.65856e-005 -8.18505e-006
257
root  13.3369 40.2005 -5.42943 -0.623222 43.5739 2.55968
RightUpLeg  -2.55163 -13.4079 -8.95811
RightLeg  16.5296 2.91621 2.53741
RightFoot  -9.89527 -0.115175 3.8197
RightToes  0.00048216 0.542163 -0.142577
Spine  13.6173 -1.16808 3.64591
Spine1  10.3988 -2.11425 5.44198
HEad  12.429 -35.3501 5.55543
LeftShoulder1  8.51348 -13.078 -44.7295
LeftArm  -14.2474 27.9356 -28.6314
LeftForeArm  30.4089 -36.4057 -6.43662
LeftHand  -0.25398 0.0180481 5.50724
RightShoulder  5.73232 9.65624 37.532
RightArm  20.5756 3.90713 31.6468
RightForeArm  -4.06394 21.2261 5.61064
RightHand  -0.707965 0.78141 -13.4052
LeftUpLeg  -9.32023 16.47 2.34384
LeftLeg  31.7176 9.44674 6.58386
LeftFoot  -6.26079 0.326039 -6.49307
LeftToes  1.06243e-005 4.65856e-005 -8.18505e-006
